<svg width="580" height="330" viewBox="0 0 580 330" fill="none" xmlns="http://www.w3.org/2000/svg">
<rect x="8" y="22" width="300" height="300" rx="20" fill="#7C67FA"/>
<path d="M126 160L198 243H54L126 160Z" fill="#4831D2"/>
<path d="M126 159H245V197.64L201.158 243H126V159Z" fill="#9483F6"/>
<rect x="126" y="95" width="119" height="65" fill="#6853E7"/>
<path d="M388.4 106C385.667 107.333 382.633 108.4 379.3 109.2C375.967 110 371.9 110.4 367.1 110.4C362.967 110.4 359.167 109.733 355.7 108.4C352.3 107 349.367 105.033 346.9 102.5C344.5 99.9667 342.633 96.9 341.3 93.3C339.967 89.6333 339.3 85.5333 339.3 81C339.3 75.8 340.2 70.6333 342 65.5C343.867 60.3667 346.567 55.8 350.1 51.8C353.7 47.7333 358.067 44.4333 363.2 41.9C368.4 39.3667 374.367 38.1 381.1 38.1C384.3 38.1 387.433 38.4667 390.5 39.2C393.633 39.9333 396.9 41.2333 400.3 43.1L394.7 55.2C391.9 53.7333 389.4 52.7333 387.2 52.2C385 51.6667 382.633 51.4 380.1 51.4C376.3 51.4 372.867 52.1667 369.8 53.7C366.8 55.2333 364.2 57.3333 362 60C359.867 62.6 358.233 65.6333 357.1 69.1C355.967 72.5667 355.4 76.2333 355.4 80.1C355.4 85.9667 356.667 90.2333 359.2 92.9C361.8 95.5667 365.5 96.9 370.3 96.9C373.5 96.9 376.433 96.5667 379.1 95.9C381.833 95.2333 384.367 94.3667 386.7 93.3L388.4 106ZM445.116 86.3C444.183 90.1 443.916 93.9333 444.316 97.8C444.716 101.6 445.483 105 446.616 108L433.316 109.9C432.916 109.1 432.55 108.333 432.216 107.6C431.883 106.867 431.55 106.033 431.216 105.1C429.35 106.633 427.283 107.9 425.016 108.9C422.75 109.9 420.216 110.4 417.416 110.4C414.083 110.4 411.216 109.833 408.816 108.7C406.483 107.5 404.55 105.933 403.016 104C401.55 102 400.483 99.7 399.816 97.1C399.15 94.4333 398.816 91.6 398.816 88.6C398.816 84 399.616 79.6667 401.216 75.6C402.883 71.5333 405.15 68 408.016 65C410.95 61.9333 414.383 59.5333 418.316 57.8C422.25 56.0667 426.516 55.2 431.116 55.2C431.716 55.2 432.75 55.2333 434.216 55.3C435.75 55.3667 437.483 55.5333 439.416 55.8C441.35 56 443.383 56.3667 445.516 56.9C447.65 57.4333 449.683 58.1667 451.616 59.1L445.116 86.3ZM434.716 67.9C433.85 67.7667 433.05 67.6667 432.316 67.6C431.65 67.5333 430.816 67.5 429.816 67.5C427.55 67.5 425.416 68.0667 423.416 69.2C421.483 70.3333 419.783 71.8333 418.316 73.7C416.85 75.5 415.683 77.6 414.816 80C414.016 82.4 413.616 84.9 413.616 87.5C413.616 90.7 414.15 93.2333 415.216 95.1C416.283 96.9667 418.25 97.9 421.116 97.9C422.65 97.9 424.016 97.6 425.216 97C426.483 96.4 427.816 95.4 429.216 94C429.35 92.3333 429.55 90.6 429.816 88.8C430.15 86.9333 430.483 85.2333 430.816 83.7L434.716 67.9ZM466.705 58.8C467.839 58.4667 469.072 58.1 470.405 57.7C471.805 57.2333 473.339 56.8333 475.005 56.5C476.739 56.1 478.639 55.8 480.705 55.6C482.839 55.3333 485.239 55.2 487.905 55.2C495.772 55.2 501.172 57.4667 504.105 62C507.039 66.5333 507.539 72.7333 505.605 80.6L498.805 109H483.905L490.505 81.2C490.905 79.4667 491.205 77.8 491.405 76.2C491.672 74.5333 491.672 73.1 491.405 71.9C491.139 70.6333 490.505 69.6333 489.505 68.9C488.572 68.1 487.105 67.7 485.105 67.7C483.172 67.7 481.205 67.9 479.205 68.3L469.505 109H454.605L466.705 58.8ZM536.621 32.3C536.554 33.2333 536.421 34.2 536.221 35.2C536.088 36.2 535.954 36.9333 535.821 37.4C534.754 41.8667 532.921 46.1333 530.321 50.2C527.788 54.2 525.021 57.6 522.021 60.4L513.121 56.7C515.454 53.1 517.388 49.2667 518.921 45.2C520.521 41.0667 521.588 36.7667 522.121 32.3H536.621ZM544.394 43.3L559.894 40.9L556.094 56.4H572.694L569.694 68.6H553.194L548.794 87C548.394 88.5333 548.127 89.9667 547.994 91.3C547.927 92.6333 548.094 93.8 548.494 94.8C548.96 95.7333 549.727 96.4667 550.794 97C551.86 97.5333 553.327 97.8 555.194 97.8C556.794 97.8 558.327 97.6667 559.794 97.4C561.327 97.0667 562.86 96.6333 564.394 96.1L565.494 107.5C563.494 108.233 561.327 108.867 558.994 109.4C556.66 109.933 553.894 110.2 550.694 110.2C546.094 110.2 542.527 109.533 539.994 108.2C537.46 106.8 535.66 104.933 534.594 102.6C533.527 100.2 533.06 97.4667 533.194 94.4C533.327 91.3333 533.794 88.1 534.594 84.7L544.394 43.3ZM351.1 198.4C354.5 198.4 356.833 197.933 358.1 197C359.367 196 360 194.933 360 193.8C360 193.067 359.867 192.433 359.6 191.9C359.4 191.367 359.033 190.867 358.5 190.4C357.967 189.933 357.233 189.467 356.3 189C355.367 188.467 354.167 187.867 352.7 187.2C351.033 186.467 349.467 185.7 348 184.9C346.533 184.033 345.233 183.033 344.1 181.9C343.033 180.7 342.167 179.367 341.5 177.9C340.9 176.367 340.6 174.567 340.6 172.5C340.6 167.1 342.567 162.833 346.5 159.7C350.5 156.567 356.3 155 363.9 155C367.5 155 370.7 155.4 373.5 156.2C376.3 157 378.567 157.867 380.3 158.8L375.2 169.9C373.8 169.167 372 168.467 369.8 167.8C367.6 167.133 365.433 166.8 363.3 166.8C362.367 166.8 361.433 166.867 360.5 167C359.633 167.067 358.8 167.267 358 167.6C357.267 167.933 356.667 168.4 356.2 169C355.733 169.6 355.5 170.4 355.5 171.4C355.5 172.733 356 173.733 357 174.4C358.067 175.067 359.533 175.867 361.4 176.8C364 178.067 366.167 179.233 367.9 180.3C369.633 181.367 371 182.5 372 183.7C373.067 184.9 373.833 186.267 374.3 187.8C374.767 189.333 375 191.133 375 193.2C375 195.333 374.533 197.433 373.6 199.5C372.733 201.567 371.333 203.4 369.4 205C367.467 206.6 365 207.9 362 208.9C359 209.9 355.4 210.4 351.2 210.4C348.6 210.4 346.233 210.233 344.1 209.9C342.033 209.567 340.2 209.167 338.6 208.7C337 208.167 335.633 207.633 334.5 207.1C333.433 206.567 332.6 206.133 332 205.8L337.1 194.4C338.233 195.067 340 195.9 342.4 196.9C344.8 197.9 347.7 198.4 351.1 198.4ZM396.64 143.3L412.14 140.9L408.34 156.4H424.94L421.94 168.6H405.44L401.04 187C400.64 188.533 400.373 189.967 400.24 191.3C400.173 192.633 400.34 193.8 400.74 194.8C401.207 195.733 401.973 196.467 403.04 197C404.107 197.533 405.573 197.8 407.44 197.8C409.04 197.8 410.573 197.667 412.04 197.4C413.573 197.067 415.107 196.633 416.64 196.1L417.74 207.5C415.74 208.233 413.573 208.867 411.24 209.4C408.907 209.933 406.14 210.2 402.94 210.2C398.34 210.2 394.773 209.533 392.24 208.2C389.707 206.8 387.907 204.933 386.84 202.6C385.773 200.2 385.307 197.467 385.44 194.4C385.573 191.333 386.04 188.1 386.84 184.7L396.64 143.3ZM446.277 210.4C442.743 210.4 439.677 209.867 437.077 208.8C434.477 207.733 432.31 206.233 430.577 204.3C428.91 202.367 427.643 200.1 426.777 197.5C425.91 194.833 425.477 191.9 425.477 188.7C425.477 184.7 426.11 180.7 427.377 176.7C428.71 172.7 430.643 169.1 433.177 165.9C435.71 162.7 438.81 160.1 442.477 158.1C446.143 156.033 450.343 155 455.077 155C458.543 155 461.577 155.533 464.177 156.6C466.843 157.667 469.01 159.167 470.677 161.1C472.41 163.033 473.71 165.333 474.577 168C475.443 170.6 475.877 173.5 475.877 176.7C475.877 180.7 475.243 184.7 473.977 188.7C472.71 192.7 470.843 196.3 468.377 199.5C465.91 202.7 462.81 205.333 459.077 207.4C455.41 209.4 451.143 210.4 446.277 210.4ZM453.677 167.6C451.477 167.6 449.543 168.233 447.877 169.5C446.21 170.767 444.81 172.367 443.677 174.3C442.543 176.233 441.677 178.367 441.077 180.7C440.543 182.967 440.277 185.133 440.277 187.2C440.277 190.6 440.81 193.233 441.877 195.1C442.943 196.9 444.877 197.8 447.677 197.8C449.877 197.8 451.81 197.167 453.477 195.9C455.143 194.633 456.543 193.033 457.677 191.1C458.81 189.167 459.643 187.067 460.177 184.8C460.777 182.467 461.077 180.267 461.077 178.2C461.077 174.8 460.543 172.2 459.477 170.4C458.41 168.533 456.477 167.6 453.677 167.6ZM497.398 197.4C498.532 197.667 499.932 197.8 501.598 197.8C504.198 197.8 506.565 197.333 508.698 196.4C510.832 195.4 512.632 194.033 514.098 192.3C515.632 190.567 516.798 188.5 517.598 186.1C518.465 183.633 518.898 180.933 518.898 178C518.898 175.133 518.265 172.7 516.998 170.7C515.732 168.7 513.532 167.7 510.398 167.7C508.265 167.7 506.265 167.9 504.398 168.3L497.398 197.4ZM533.698 176.9C533.698 181.767 532.898 186.233 531.298 190.3C529.698 194.3 527.465 197.767 524.598 200.7C521.798 203.633 518.398 205.933 514.398 207.6C510.465 209.2 506.165 210 501.498 210C499.232 210 496.965 209.8 494.698 209.4L490.198 227.5H475.398L491.998 158.3C494.665 157.5 497.698 156.8 501.098 156.2C504.565 155.533 508.298 155.2 512.298 155.2C516.032 155.2 519.232 155.767 521.898 156.9C524.632 158.033 526.865 159.6 528.598 161.6C530.332 163.533 531.598 165.833 532.398 168.5C533.265 171.1 533.698 173.9 533.698 176.9ZM346.1 258.8C347.233 258.467 348.433 258.1 349.7 257.7C351.033 257.233 352.5 256.833 354.1 256.5C355.767 256.1 357.6 255.8 359.6 255.6C361.667 255.333 364.033 255.2 366.7 255.2C369.9 255.2 372.533 255.6 374.6 256.4C376.733 257.2 378.667 258.4 380.4 260C382.867 258.6 385.3 257.467 387.7 256.6C390.167 255.667 393.033 255.2 396.3 255.2C399.433 255.2 402.1 255.633 404.3 256.5C406.567 257.3 408.433 258.5 409.9 260.1C411.367 261.633 412.433 263.5 413.1 265.7C413.767 267.833 414.1 270.2 414.1 272.8C414.1 274 414 275.267 413.8 276.6C413.667 277.933 413.433 279.267 413.1 280.6L406.3 309H391.4L398 281.2C398.2 280.267 398.4 279.233 398.6 278.1C398.867 276.9 399 275.733 399 274.6C399 272.733 398.567 271.133 397.7 269.8C396.833 268.4 395.133 267.7 392.6 267.7C391.2 267.7 389.867 267.967 388.6 268.5C387.333 268.967 386.2 269.467 385.2 270C385.333 270.533 385.4 271.033 385.4 271.5C385.4 271.967 385.4 272.4 385.4 272.8C385.4 274 385.3 275.267 385.1 276.6C384.967 277.933 384.733 279.267 384.4 280.6L377.6 309H362.7L369.3 281.2C369.5 280.267 369.7 279.233 369.9 278.1C370.167 276.9 370.3 275.733 370.3 274.6C370.3 272.733 369.867 271.133 369 269.8C368.133 268.4 366.433 267.7 363.9 267.7C362.833 267.7 361.933 267.767 361.2 267.9C360.467 267.967 359.6 268.1 358.6 268.3L348.9 309H334L346.1 258.8ZM421.57 288.4C421.57 284.133 422.304 280 423.77 276C425.304 272 427.437 268.467 430.17 265.4C432.904 262.267 436.204 259.767 440.07 257.9C444.004 255.967 448.337 255 453.07 255C455.404 255 457.57 255.333 459.57 256C461.57 256.667 463.304 257.633 464.77 258.9C466.304 260.167 467.47 261.733 468.27 263.6C469.137 265.4 469.57 267.467 469.57 269.8C469.57 273.533 468.737 276.7 467.07 279.3C465.404 281.9 463.07 284.033 460.07 285.7C457.137 287.3 453.637 288.467 449.57 289.2C445.504 289.933 441.07 290.3 436.27 290.3C436.737 293.1 437.737 295.1 439.27 296.3C440.87 297.433 443.37 298 446.77 298C448.904 298 451.07 297.833 453.27 297.5C455.47 297.1 457.537 296.533 459.47 295.8L460.57 307.5C458.704 308.233 456.304 308.9 453.37 309.5C450.504 310.1 447.37 310.4 443.97 310.4C439.837 310.4 436.337 309.833 433.47 308.7C430.67 307.5 428.37 305.9 426.57 303.9C424.837 301.9 423.57 299.567 422.77 296.9C421.97 294.233 421.57 291.4 421.57 288.4ZM450.67 266.8C447.27 266.8 444.27 268.033 441.67 270.5C439.137 272.9 437.47 276.1 436.67 280.1C440.804 279.967 444.137 279.633 446.67 279.1C449.204 278.5 451.17 277.8 452.57 277C453.97 276.2 454.904 275.333 455.37 274.4C455.837 273.467 456.07 272.533 456.07 271.6C456.07 268.4 454.27 266.8 450.67 266.8Z" fill="black"/>
</svg>
