<svg width="125" height="45" viewBox="0 0 125 45" fill="none" xmlns="http://www.w3.org/2000/svg">
<g clip-path="url(#clip0_59:18)">
<path d="M30.52 14.04C30.4667 13.72 30.44 13.3333 30.44 12.88C30.44 12.4 30.4667 12 30.52 11.68V10.08C30.52 9.86666 30.5333 9.66666 30.56 9.48C30.5867 9.26667 30.6 9.05333 30.6 8.84C30.6533 8.62667 30.6933 8.42667 30.72 8.24C30.7733 8.05333 30.84 7.88 30.92 7.72C31 7.37333 31.16 7.08 31.4 6.84C31.9333 6.49333 32.4533 6.30667 32.96 6.28C33.4667 6.22667 33.9067 6.33333 34.28 6.6C34.68 6.84 34.9867 7.22667 35.2 7.76C35.44 8.26667 35.5467 8.90667 35.52 9.68C35.52 9.97333 35.5333 10.24 35.56 10.48C35.5867 10.6933 35.6 10.9067 35.6 11.12V35.16C35.6 35.24 35.6 35.3467 35.6 35.48C35.6 35.6133 35.5733 35.7467 35.52 35.88C35.52 36.2 35.44 36.52 35.28 36.84C35.2 37.1333 35.04 37.4 34.8 37.64C34.6133 37.8267 34.3733 37.96 34.08 38.04C33.8667 38.0933 33.6667 38.1333 33.48 38.16C33.32 38.1867 33.16 38.2 33 38.2C32.3867 38.2 31.9067 37.9867 31.56 37.56C31.2133 37.2133 31 36.84 30.92 36.44C30.8133 35.9867 30.7333 35.4933 30.68 34.96C30.6533 34.4267 30.64 33.8933 30.64 33.36L30.44 23.6C30.2267 23.5467 29.9867 23.5333 29.72 23.56C29.48 23.5867 29 23.5733 28.28 23.52C28.04 23.4667 27.8133 23.4267 27.6 23.4C27.4133 23.3467 27.2133 23.28 27 23.2C26.6533 23.0667 26.3067 22.8267 25.96 22.48C25.8267 22.3467 25.72 22.1867 25.64 22C25.56 21.7867 25.4933 21.5733 25.44 21.36C25.36 20.96 25.36 20.5067 25.44 20C25.4933 19.92 25.5467 19.8267 25.6 19.72C25.6533 19.6133 25.72 19.4933 25.8 19.36C26.0667 19.0933 26.2267 18.9067 26.28 18.8C26.4933 18.6667 26.6933 18.56 26.88 18.48C27.0933 18.3733 27.3067 18.32 27.52 18.32L30.52 18.28V14.04ZM14.04 24.8C13.7733 24.8533 13.5867 24.96 13.48 25.12C13.3733 25.28 13.3067 25.4667 13.28 25.68C13.2533 25.8667 13.2533 26.08 13.28 26.32C13.3067 26.5333 13.32 26.7333 13.32 26.92C13.32 27.2667 13.32 27.76 13.32 28.4C13.32 29.0133 13.3467 29.5067 13.4 29.88C13.4 30.0667 13.3867 30.3067 13.36 30.6C13.36 30.8933 13.4267 31.1067 13.56 31.24C13.56 31.2933 13.5867 31.3333 13.64 31.36C13.6933 31.3867 13.7467 31.4 13.8 31.4C14.4133 31.4 15.0933 31.4 15.84 31.4C16.5867 31.4 17.2667 31.3733 17.88 31.32C18.8133 31.32 19.7867 31.32 20.8 31.32C21.84 31.2933 22.8267 31.32 23.76 31.4C24.1333 31.4533 24.4133 31.56 24.6 31.72C24.8133 31.8533 24.9867 32.0267 25.12 32.24C25.28 32.4533 25.3867 32.64 25.44 32.8C25.4933 32.9333 25.52 33.1467 25.52 33.44C25.5733 33.76 25.5467 34.0667 25.44 34.36C25.36 34.6533 25.2533 34.8933 25.12 35.08C24.9867 35.24 24.8267 35.3867 24.64 35.52C24.48 35.6267 24.2933 35.7467 24.08 35.88C23.5467 36.1467 23.0133 36.28 22.48 36.28C21.9733 36.2533 21.44 36.2667 20.88 36.32C20.4 36.32 19.8533 36.3333 19.24 36.36C18.6267 36.3867 18.0667 36.3733 17.56 36.32C17.16 36.2667 16.7067 36.2533 16.2 36.28C15.72 36.3067 15.2933 36.32 14.92 36.32C14.5467 36.2667 14.1867 36.2533 13.84 36.28C13.4933 36.3067 13.1333 36.32 12.76 36.32C12.12 36.2667 11.48 36.2 10.84 36.12C10.2 36.0133 9.61333 35.7733 9.08 35.4C8.86667 35.2667 8.69333 35.1067 8.56 34.92C8.42667 34.7067 8.32 34.4933 8.24 34.28C7.89333 33.5333 7.76 32.7467 7.84 31.92C7.86667 31.28 7.86667 30.6933 7.84 30.16C7.84 29.6 7.82667 29.0533 7.8 28.52C7.8 27.96 7.78667 27.4 7.76 26.84C7.76 26.2533 7.76 25.6267 7.76 24.96C7.76 24.4533 7.74667 23.84 7.72 23.12C7.72 22.4 7.84 21.8267 8.08 21.4C8.32 21 8.58667 20.7067 8.88 20.52C9.17333 20.3067 9.48 20.1733 9.8 20.12C10.1467 20.04 10.4933 20 10.84 20C11.2133 20 11.5867 20 11.96 20H15.24C15.56 20 16 20 16.56 20C17.12 19.9733 17.5733 19.92 17.92 19.84C18.16 19.7067 18.32 19.5333 18.4 19.32C18.5333 18.6 18.6 17.84 18.6 17.04C18.6267 16.2133 18.6133 15.44 18.56 14.72C18.56 14.4267 18.56 14.04 18.56 13.56C18.56 13.08 18.48 12.72 18.32 12.48C18.1333 12.1867 17.72 12.04 17.08 12.04L10.44 12.16C10.0667 12.16 9.65333 12.1067 9.2 12C8.74667 11.8933 8.4 11.6933 8.16 11.4C8.08 11.2667 8 11.1333 7.92 11C7.84 10.8667 7.76 10.6933 7.68 10.48C7.46667 9.70667 7.52 9.02667 7.84 8.44C8.18667 7.82666 8.73333 7.42667 9.48 7.24C10.12 7.10667 10.76 7.06667 11.4 7.12C12.04 7.14666 12.68 7.13333 13.32 7.08H18.56C19.0933 7.08 19.64 7.08 20.2 7.08C20.76 7.08 21.3067 7.16 21.84 7.32C22.4267 7.53333 22.9067 7.96 23.28 8.6C23.3333 8.73333 23.3733 8.85333 23.4 8.96C23.4267 9.06667 23.4667 9.21333 23.52 9.4C23.5733 9.53333 23.6133 9.65333 23.64 9.76C23.6667 9.86666 23.68 9.98666 23.68 10.12C23.7333 10.5733 23.76 11.1333 23.76 11.8C23.76 12.44 23.76 12.9733 23.76 13.4C23.76 14.28 23.7733 15.16 23.8 16.04C23.8267 16.92 23.84 17.8133 23.84 18.72C23.84 19.6533 23.8267 20.4933 23.8 21.24C23.8 21.9867 23.68 22.6667 23.44 23.28C23.1733 23.84 22.8 24.2 22.32 24.36C21.8667 24.5733 21.3733 24.68 20.84 24.68C20.3067 24.6533 19.8133 24.64 19.36 24.64C18.7467 24.64 18.0667 24.6533 17.32 24.68C16.5733 24.68 15.96 24.68 15.48 24.68C15.2667 24.68 15.1067 24.68 15 24.68C14.92 24.68 14.84 24.68 14.76 24.68C14.68 24.68 14.5867 24.6933 14.48 24.72C14.4 24.72 14.2533 24.7467 14.04 24.8Z" fill="url(#paint0_linear_59:18)"/>
<path d="M48.44 32.28C48.44 31.08 48.76 30.08 49.4 29.28C50.0667 28.48 50.9733 27.8533 52.12 27.4C53.2933 26.92 54.6667 26.5867 56.24 26.4C57.84 26.2133 59.56 26.12 61.4 26.12C63.24 26.12 64.9467 26.1867 66.52 26.32C68.0933 26.4533 69.4533 26.7467 70.6 27.2C71.7733 27.6267 72.6933 28.24 73.36 29.04C74.0267 29.84 74.36 30.92 74.36 32.28C74.36 33.6133 74.0267 34.68 73.36 35.48C72.6933 36.28 71.7733 36.8933 70.6 37.32C69.4533 37.7733 68.0933 38.0667 66.52 38.2C64.9467 38.36 63.24 38.44 61.4 38.44C59.56 38.44 57.84 38.36 56.24 38.2C54.6667 38.0667 53.2933 37.7733 52.12 37.32C50.9733 36.8933 50.0667 36.28 49.4 35.48C48.76 34.68 48.44 33.6133 48.44 32.28ZM51.12 23.44C50.32 23.44 49.6667 23.36 49.16 23.2C48.6533 23.0133 48.2 22.6533 47.8 22.12C47.2933 21.4533 47.04 20.7067 47.04 19.88C47.04 19.32 47.0267 18.6933 47 18C47 17.3067 47 16.6 47 15.88C47 15.16 47 14.4533 47 13.76C47 13.04 47.0133 12.4 47.04 11.84C47.0667 11.1467 47.0667 10.4267 47.04 9.68C47.04 8.90667 47.2133 8.21333 47.56 7.6C47.7467 7.25333 48.0133 6.97333 48.36 6.76C48.7333 6.52 49.1067 6.37333 49.48 6.32C49.88 6.26666 50.2533 6.32 50.6 6.48C50.9733 6.61333 51.2667 6.85333 51.48 7.2C51.96 8 52.1867 8.85333 52.16 9.76C52.16 10.64 52.16 11.5467 52.16 12.48C52.16 12.8 52.16 13.2 52.16 13.68C52.16 14.1333 52.16 14.6133 52.16 15.12C52.1867 15.6267 52.2 16.12 52.2 16.6C52.2267 17.08 52.2667 17.48 52.32 17.8C52.3467 18.12 52.4267 18.36 52.56 18.52C52.6933 18.6533 52.8533 18.7467 53.04 18.8C53.2267 18.8533 53.44 18.88 53.68 18.88C53.92 18.88 54.16 18.88 54.4 18.88L62.84 19.12C63.1867 19.12 63.4667 19.2267 63.68 19.44C63.92 19.6267 64.0933 19.8667 64.2 20.16C64.3067 20.4267 64.3733 20.72 64.4 21.04C64.4267 21.3333 64.4133 21.6 64.36 21.84C64.28 22.4533 63.9733 22.88 63.44 23.12C62.9067 23.3333 62.28 23.44 61.56 23.44H51.12ZM73.88 21.48C73.88 21.48 73.8667 21.5733 73.84 21.76C73.8133 21.9467 73.76 22.16 73.68 22.4C73.6 22.64 73.48 22.8933 73.32 23.16C73.16 23.4 72.9467 23.6 72.68 23.76C72.3067 23.9733 71.9333 24.08 71.56 24.08C71.1067 24.08 70.6667 23.9333 70.24 23.64C69.9467 23.4267 69.72 23.1467 69.56 22.8C69.3467 22.4 69.2 21.96 69.12 21.48C69.0667 21 69.0267 20.5067 69 20C69 19.4933 69.0133 19 69.04 18.52C69.0667 18.0133 69.08 17.5333 69.08 17.08C69.1067 15.9333 69.12 14.8533 69.12 13.84C69.12 12.8 69.12 11.72 69.12 10.6V10.08C69.0933 9.78667 69.08 9.48 69.08 9.16C69.1067 8.81333 69.16 8.49333 69.24 8.2C69.3467 7.8 69.5867 7.37333 69.96 6.92C70.1733 6.65333 70.4667 6.46667 70.84 6.36C71.24 6.22667 71.6667 6.18667 72.12 6.24C72.92 6.37333 73.4533 6.72 73.72 7.28C73.88 7.62667 73.9467 8.05333 73.92 8.56C73.92 9.06667 73.9067 9.37333 73.88 9.48V21.48ZM68.96 32.28C68.96 31.8267 68.7333 31.4667 68.28 31.2C67.8533 30.9333 67.28 30.7333 66.56 30.6C65.8667 30.4667 65.0667 30.3867 64.16 30.36C63.2533 30.3067 62.3333 30.28 61.4 30.28C60.4667 30.28 59.56 30.3067 58.68 30.36C57.8 30.3867 57.0133 30.4667 56.32 30.6C55.6533 30.7333 55.1067 30.9333 54.68 31.2C54.28 31.4667 54.08 31.8267 54.08 32.28C54.08 32.68 54.28 33.0133 54.68 33.28C55.1067 33.5467 55.6533 33.7467 56.32 33.88C57.0133 34.0133 57.8 34.1067 58.68 34.16C59.56 34.2133 60.4667 34.24 61.4 34.24C62.3333 34.24 63.2533 34.24 64.16 34.24C65.0667 34.24 65.8667 34.1867 66.56 34.08C67.28 33.9733 67.8533 33.7867 68.28 33.52C68.7333 33.2267 68.96 32.8133 68.96 32.28Z" fill="url(#paint1_linear_59:18)"/>
<path d="M101.52 20.44C101.52 20.7333 101.493 21.04 101.44 21.36C101.413 21.68 101.347 22 101.24 22.32C101.16 22.64 101.013 22.9333 100.8 23.2C100.613 23.44 100.36 23.6133 100.04 23.72C99.3467 24.0133 98.6267 24.16 97.88 24.16C97.16 24.1333 96.44 24.12 95.72 24.12C95.5333 24.1467 95.2533 24.16 94.88 24.16C94.5333 24.16 94.16 24.16 93.76 24.16C93.36 24.1333 92.9733 24.12 92.6 24.12C92.2267 24.12 91.9333 24.12 91.72 24.12H91.68C91.2 24.12 90.72 24.12 90.24 24.12C89.7867 24.0933 89.3467 24.0533 88.92 24C88.4933 23.92 88.1067 23.8 87.76 23.64C87.44 23.48 87.1733 23.24 86.96 22.92C86.72 22.5733 86.5467 22.1467 86.44 21.64C86.36 21.1067 86.2933 20.6 86.24 20.12C86.2133 19.6133 86.2 19.1867 86.2 18.84C86.2267 18.4667 86.24 18.2667 86.24 18.24V16.96C86.24 16.5867 86.24 16.1733 86.24 15.72C86.24 15.24 86.2533 14.7733 86.28 14.32C86.28 13.84 86.28 13.4133 86.28 13.04C86.3067 12.6667 86.32 12.3467 86.32 12.08V11.24C86.32 11.16 86.32 11.0133 86.32 10.8C86.32 10.5867 86.3333 10.36 86.36 10.12C86.3867 9.85333 86.4267 9.6 86.48 9.36C86.5333 9.09333 86.6133 8.88 86.72 8.72C86.96 8.34667 87.2 8.08 87.44 7.92C87.7067 7.73333 88.04 7.6 88.44 7.52C88.5733 7.49333 88.7733 7.48 89.04 7.48C89.3067 7.45333 89.56 7.42667 89.8 7.4C90.0933 7.37333 90.3867 7.36 90.68 7.36H96.92C97.5067 7.36 98.1067 7.41333 98.72 7.52C99.36 7.6 99.9333 7.8 100.44 8.12C100.84 8.36 101.12 8.66666 101.28 9.04C101.44 9.41333 101.547 9.81333 101.6 10.24C101.653 10.64 101.667 11.0533 101.64 11.48C101.613 11.9067 101.6 12.3067 101.6 12.68L101.52 20.44ZM115.28 23.96C115.28 23.9867 115.267 24.08 115.24 24.24C115.24 24.4 115.2 24.6 115.12 24.84C115.04 25.0533 114.92 25.28 114.76 25.52C114.627 25.76 114.427 25.96 114.16 26.12C113.867 26.3067 113.56 26.4 113.24 26.4C112.707 26.4 112.267 26.2667 111.92 26C111.627 25.7867 111.4 25.52 111.24 25.2C111.027 24.8267 110.88 24.3733 110.8 23.84C110.747 23.28 110.707 22.72 110.68 22.16C110.68 21.5733 110.693 21 110.72 20.44C110.747 19.8533 110.76 19.36 110.76 18.96V18.44C110.467 18.4667 110.173 18.48 109.88 18.48C109.613 18.48 109.347 18.48 109.08 18.48H108.96V22.92C108.933 23.2133 108.893 23.52 108.84 23.84C108.787 24.1333 108.68 24.4267 108.52 24.72C108.333 25.0667 108.107 25.32 107.84 25.48C107.653 25.6133 107.493 25.72 107.36 25.8C107.227 25.88 107.04 25.92 106.8 25.92C106.427 25.92 106.053 25.8133 105.68 25.6C105.413 25.44 105.2 25.24 105.04 25C104.88 24.76 104.76 24.5333 104.68 24.32C104.6 24.1067 104.547 23.92 104.52 23.76C104.493 23.5733 104.48 23.48 104.48 23.48V9.48C104.453 9.34667 104.453 9.05333 104.48 8.6C104.533 8.12 104.64 7.72 104.8 7.4C105.067 6.84 105.613 6.52 106.44 6.44C106.893 6.38667 107.267 6.41333 107.56 6.52C107.853 6.62667 108.107 6.8 108.32 7.04C108.507 7.25333 108.627 7.46666 108.68 7.68C108.733 7.86667 108.787 8.06667 108.84 8.28C108.92 8.54667 108.96 8.82667 108.96 9.12C108.987 9.41333 109 9.70667 109 10C108.973 10.1067 108.96 10.2667 108.96 10.48V14C109.093 14.0267 109.333 14.0533 109.68 14.08C110.053 14.08 110.427 14.0933 110.8 14.12V10.36V9.88C110.773 9.58667 110.76 9.30667 110.76 9.04C110.787 8.74666 110.84 8.45333 110.92 8.16C111.027 7.76 111.267 7.36 111.64 6.96C112.067 6.42667 112.693 6.21333 113.52 6.32C114.213 6.42667 114.693 6.77333 114.96 7.36C115.12 7.68 115.213 8.06667 115.24 8.52C115.293 8.97333 115.307 9.25333 115.28 9.36V23.96ZM115.24 35.04C115.373 36.0533 115.2 36.84 114.72 37.4C114.4 37.7733 114.053 38 113.68 38.08C113.307 38.16 113.107 38.2 113.08 38.2H93.84C92.7467 38.2 91.8 38.0267 91 37.68C90.2 37.36 89.8 36.8933 89.8 36.28V30.2C89.7467 29.6133 89.7467 29.0133 89.8 28.4C89.8533 27.84 90.0667 27.3867 90.44 27.04C90.84 26.6933 91.3467 26.52 91.96 26.52C92.0933 26.52 92.3333 26.5333 92.68 26.56C93.0267 26.5867 93.2667 26.6267 93.4 26.68C93.7467 26.7867 94.0133 26.9467 94.2 27.16C94.4133 27.3467 94.5733 27.5867 94.68 27.88C94.7867 28.1467 94.8533 28.44 94.88 28.76C94.9067 29.0533 94.9333 29.3467 94.96 29.64C94.96 29.7733 94.96 30.0267 94.96 30.4C94.9867 30.7733 95 31.1733 95 31.6C95.0267 32 95.04 32.3867 95.04 32.76C95.0667 33.1333 95.0933 33.36 95.12 33.44C95.2 33.4667 95.4133 33.5067 95.76 33.56C96.1333 33.5867 96.8133 33.6 97.8 33.6C98.6533 33.6 99.1733 33.5867 99.36 33.56C99.5733 33.5333 99.6933 33.52 99.72 33.52H113.44C113.44 33.52 113.52 33.5467 113.68 33.6C113.867 33.6533 114.067 33.7467 114.28 33.88C114.493 33.9867 114.693 34.1467 114.88 34.36C115.067 34.5467 115.187 34.7733 115.24 35.04ZM96.84 13.56C96.8133 13.3467 96.8 13.1333 96.8 12.92C96.8267 12.7067 96.8133 12.4933 96.76 12.28C96.6533 11.9867 96.48 11.8267 96.24 11.8C96 11.7467 95.76 11.72 95.52 11.72L93.32 11.64C93.08 11.64 92.8667 11.64 92.68 11.64C92.52 11.64 92.36 11.6667 92.2 11.72C91.8267 11.7467 91.52 11.9067 91.28 12.2C91.1733 12.3333 91.1067 12.5333 91.08 12.8C91.08 13.0667 91.08 13.2267 91.08 13.28V14.56C91.0533 14.7733 91.04 15.04 91.04 15.36C91.04 15.68 91.04 16 91.04 16.32V17.52C91.04 17.52 91.04 17.6 91.04 17.76C91.04 17.92 91.04 18.1067 91.04 18.32C91.0667 18.5333 91.1067 18.7467 91.16 18.96C91.2133 19.1733 91.3067 19.36 91.44 19.52C91.6533 19.7867 91.8667 19.9467 92.08 20C92.2933 20.0267 92.64 20.04 93.12 20.04L95.52 20.08C96.0533 20.08 96.36 19.9867 96.44 19.8C96.5467 19.5867 96.6267 19.28 96.68 18.88C96.7067 18.7467 96.72 18.4267 96.72 17.92C96.7467 17.4133 96.76 16.88 96.76 16.32C96.7867 15.7333 96.8 15.1733 96.8 14.64C96.8 14.1067 96.8133 13.7467 96.84 13.56Z" fill="url(#paint2_linear_59:18)"/>
</g>
<defs>
<linearGradient id="paint0_linear_59:18" x1="20" y1="0" x2="20" y2="50" gradientUnits="userSpaceOnUse">
<stop stop-color="#6256EE"/>
<stop offset="1" stop-color="#52C1F3"/>
</linearGradient>
<linearGradient id="paint1_linear_59:18" x1="59" y1="0" x2="59" y2="50" gradientUnits="userSpaceOnUse">
<stop stop-color="#6256EE"/>
<stop offset="1" stop-color="#52C1F3"/>
</linearGradient>
<linearGradient id="paint2_linear_59:18" x1="98.5" y1="0" x2="98.5" y2="50" gradientUnits="userSpaceOnUse">
<stop stop-color="#6256EE"/>
<stop offset="1" stop-color="#52C1F3"/>
</linearGradient>
<clipPath id="clip0_59:18">
<rect width="125" height="45" fill="white"/>
</clipPath>
</defs>
</svg>
