<svg width="126" height="46" viewBox="0 0 126 46" fill="none" xmlns="http://www.w3.org/2000/svg">
<path d="M21.52 18.28H19.36V22H15.4V8H21.8C23.0667 8 24.1667 8.21333 25.1 8.64C26.0333 9.05333 26.7533 9.65333 27.26 10.44C27.7667 11.2133 28.02 12.1267 28.02 13.18C28.02 14.1933 27.78 15.08 27.3 15.84C26.8333 16.5867 26.16 17.1733 25.28 17.6L28.3 22H24.06L21.52 18.28ZM24.02 13.18C24.02 12.5267 23.8133 12.02 23.4 11.66C22.9867 11.3 22.3733 11.12 21.56 11.12H19.36V15.22H21.56C22.3733 15.22 22.9867 15.0467 23.4 14.7C23.8133 14.34 24.02 13.8333 24.02 13.18Z" fill="#2868C9"/>
<path d="M41.62 11.16V22H38V20.84C37.6 21.28 37.12 21.6133 36.56 21.84C36 22.0667 35.4067 22.18 34.78 22.18C33.38 22.18 32.26 21.7667 31.42 20.94C30.5933 20.1133 30.18 18.8733 30.18 17.22V11.16H33.98V16.6C33.98 17.4133 34.1333 18.0067 34.44 18.38C34.7467 18.7533 35.1933 18.94 35.78 18.94C36.38 18.94 36.8667 18.7333 37.24 18.32C37.6267 17.8933 37.82 17.2467 37.82 16.38V11.16H41.62Z" fill="#2868C9"/>
<path d="M51.28 10.98C52.6267 10.98 53.7067 11.38 54.52 12.18C55.3467 12.98 55.76 14.1867 55.76 15.8V22H51.96V16.42C51.96 14.94 51.3667 14.2 50.18 14.2C49.5267 14.2 49 14.4133 48.6 14.84C48.2133 15.2667 48.02 15.9067 48.02 16.76V22H44.22V11.16H47.84V12.34C48.2667 11.9 48.7733 11.5667 49.36 11.34C49.9467 11.1 50.5867 10.98 51.28 10.98Z" fill="#2868C9"/>
<path d="M66.28 10.98C67.6267 10.98 68.7067 11.38 69.52 12.18C70.3467 12.98 70.76 14.1867 70.76 15.8V22H66.96V16.42C66.96 14.94 66.3667 14.2 65.18 14.2C64.5267 14.2 64 14.4133 63.6 14.84C63.2133 15.2667 63.02 15.9067 63.02 16.76V22H59.22V11.16H62.84V12.34C63.2667 11.9 63.7733 11.5667 64.36 11.34C64.9467 11.1 65.5867 10.98 66.28 10.98Z" fill="#2868C9"/>
<path d="M89.28 10.98C90.6267 10.98 91.7067 11.38 92.52 12.18C93.3467 12.98 93.76 14.1867 93.76 15.8V22H89.96V16.42C89.96 14.94 89.3667 14.2 88.18 14.2C87.5267 14.2 87 14.4133 86.6 14.84C86.2133 15.2667 86.02 15.9067 86.02 16.76V22H82.22V11.16H85.84V12.34C86.2667 11.9 86.7733 11.5667 87.36 11.34C87.9467 11.1 88.5867 10.98 89.28 10.98Z" fill="#2868C9"/>
<path d="M74.22 11.16H78.02V22H74.22V11.16ZM76.12 9.96C75.4267 9.96 74.8667 9.76667 74.44 9.38C74.0133 8.99333 73.8 8.51333 73.8 7.94C73.8 7.36667 74.0133 6.88667 74.44 6.5C74.8667 6.11333 75.4267 5.92 76.12 5.92C76.8133 5.92 77.3733 6.10667 77.8 6.48C78.2267 6.84 78.44 7.30667 78.44 7.88C78.44 8.48 78.2267 8.98 77.8 9.38C77.3733 9.76667 76.8133 9.96 76.12 9.96Z" fill="#2868C9"/>
<path d="M108.88 11.16V20.02C108.88 22.0333 108.333 23.54 107.24 24.54C106.147 25.5533 104.573 26.06 102.52 26.06C101.453 26.06 100.453 25.94 99.52 25.7C98.5867 25.46 97.7933 25.1067 97.14 24.64L98.52 21.98C98.96 22.34 99.5133 22.62 100.18 22.82C100.86 23.0333 101.527 23.14 102.18 23.14C103.18 23.14 103.913 22.92 104.38 22.48C104.847 22.04 105.08 21.3867 105.08 20.52V20.16C104.347 21.0133 103.273 21.44 101.86 21.44C100.9 21.44 100.013 21.2267 99.2 20.8C98.3867 20.36 97.74 19.7467 97.26 18.96C96.78 18.16 96.54 17.24 96.54 16.2C96.54 15.1733 96.78 14.2667 97.26 13.48C97.74 12.68 98.3867 12.0667 99.2 11.64C100.013 11.2 100.9 10.98 101.86 10.98C103.407 10.98 104.54 11.48 105.26 12.48V11.16H108.88ZM102.76 18.42C103.44 18.42 104 18.2133 104.44 17.8C104.893 17.3867 105.12 16.8533 105.12 16.2C105.12 15.5467 104.9 15.02 104.46 14.62C104.02 14.2067 103.453 14 102.76 14C102.067 14 101.493 14.2067 101.04 14.62C100.6 15.02 100.38 15.5467 100.38 16.2C100.38 16.8533 100.607 17.3867 101.06 17.8C101.513 18.2133 102.08 18.42 102.76 18.42Z" fill="#2868C9"/>
<path d="M28.04 41L28 33.58L24.4 39.62H22.64L19.06 33.78V41H15.4V27H18.66L23.58 35.08L28.38 27H31.64L31.68 41H28.04Z" fill="#2868C9"/>
<path d="M67.78 38.28H61.86L60.76 41H56.72L62.9 27H66.8L73 41H68.88L67.78 38.28ZM66.62 35.36L64.82 30.88L63.02 35.36H66.62Z" fill="#2868C9"/>
<path d="M109.72 27V41H106.46L100.28 33.54V41H96.4V27H99.66L105.84 34.46V27H109.72Z" fill="#2868C9"/>
</svg>
